<?xml version="1.0" encoding="UTF-8" standalone="no"?>
<svg
   xmlns:dc="http://purl.org/dc/elements/1.1/"
   xmlns:cc="http://creativecommons.org/ns#"
   xmlns:rdf="http://www.w3.org/1999/02/22-rdf-syntax-ns#"
   xmlns:svg="http://www.w3.org/2000/svg"
   xmlns="http://www.w3.org/2000/svg"
   xmlns:sodipodi="http://sodipodi.sourceforge.net/DTD/sodipodi-0.dtd"
   xmlns:inkscape="http://www.inkscape.org/namespaces/inkscape"
   version="1.1"
   id="svg2"
   xml:space="preserve"
   width="768"
   height="768"
   viewBox="0 0 768 768"
   sodipodi:docname="shutterstock_1345381553.eps"><metadata
     id="metadata8"><rdf:RDF><cc:Work
         rdf:about=""><dc:format>image/svg+xml</dc:format><dc:type
           rdf:resource="http://purl.org/dc/dcmitype/StillImage" /></cc:Work></rdf:RDF></metadata><defs
     id="defs6" /><sodipodi:namedview
     pagecolor="#ffffff"
     bordercolor="#666666"
     borderopacity="1"
     objecttolerance="10"
     gridtolerance="10"
     guidetolerance="10"
     inkscape:pageopacity="0"
     inkscape:pageshadow="2"
     inkscape:window-width="640"
     inkscape:window-height="480"
     id="namedview4" /><g
     id="g10"
     inkscape:groupmode="layer"
     inkscape:label="ink_ext_XXXXXX"
     transform="matrix(1.3333333,0,0,-1.3333333,0,768)"><g
       id="g12"
       transform="scale(0.1)">
         <path
         d="m 2880,4171.57 559.25,-322.91 559.25,-322.87 V 2234.21 L 3439.25,1911.34 2880,1588.43 2320.74,1911.34 1761.48,2234.21 V 2880 3525.79 l 559.26,322.87 559.26,322.91"
         style="fill:#ff6600;fill-opacity:1;fill-rule:evenodd;stroke:none"
         id="path16" /><path
         d="M 2880,3499.73 3189.85,3189.85 3499.73,2880 3189.85,2570.15 2880,2260.27 2570.15,2570.15 2260.27,2880 2570.15,3189.85 2880,3499.73"
         style="fill:#ff9600;fill-opacity:1;fill-rule:evenodd;stroke:none"
         id="path18" /><path
         d="M 1761.48,3525.79 2880,3499.73 2260.27,2880 Z"
         style="fill:#ffb100;fill-opacity:1;fill-rule:evenodd;stroke:none"
         id="path20" /><path
         d="M 1761.48,2234.21 2880,2260.27 2260.27,2880 Z"
         style="fill:#ff6300;fill-opacity:1;fill-rule:evenodd;stroke:none"
         id="path22" /><path
         d="M 1761.48,3525.79 V 2234.21 L 2260.27,2880 Z"
         style="fill:#ff8300;fill-opacity:1;fill-rule:evenodd;stroke:none"
         id="path24" /><path
         d="M 3998.51,3525.79 2880,3499.73 3499.73,2880 Z"
         style="fill:#ffb100;fill-opacity:1;fill-rule:evenodd;stroke:none"
         id="path26" /><path
         d="M 3998.51,2234.21 2880,2260.27 3499.73,2880 Z"
         style="fill:#e65900;fill-opacity:1;fill-rule:evenodd;stroke:none"
         id="path28" /><path
         d="M 3998.51,3525.79 V 2234.21 L 3499.73,2880 Z"
         style="fill:#ff8300;fill-opacity:1;fill-rule:evenodd;stroke:none"
         id="path30" /><path
         d="M 1761.48,3525.79 2880,3499.73 v 671.84 z"
         style="fill:#ffcc00;fill-opacity:1;fill-rule:evenodd;stroke:none"
         id="path32" /><path
         d="M 3998.51,3525.79 2880,3499.73 v 671.84 z"
         style="fill:#ffe331;fill-opacity:1;fill-rule:evenodd;stroke:none"
         id="path34" /><path
         d="M 1761.48,2234.21 2880,2260.27 v -671.84 z"
         style="fill:#ba1200;fill-opacity:1;fill-rule:evenodd;stroke:none"
         id="path36" /><path
         d="M 3998.51,2234.21 2880,2260.27 v -671.84 z"
         style="fill:#e63000;fill-opacity:1;fill-rule:evenodd;stroke:none"
         id="path38" /></g></g></svg>
