<svg width="1440" height="900" viewBox="0 0 1440 900" fill="none" xmlns="http://www.w3.org/2000/svg">
    <g clip-path="url(#clip0_497_3700)">
        <path fill="#fff" d="M0 0h1440v900H0z"/>
        <path fill="url(#paint0_linear_497_3700)" d="M0 0h1440v900H0z"/>
        <mask id="mask0_497_3700" style="mask-type:alpha" maskUnits="userSpaceOnUse" x="1336" y="26" width="20" height="20">
            <path d="M1356 36c0-5.523-4.48-10-10-10s-10 4.477-10 10 4.48 10 10 10 10-4.477 10-10Z" fill="#fff"/>
        </mask>
        <g opacity=".5">
            <path opacity=".76" d="M1832.4 895.489c0-532.783-499.17-964.67-1114.901-964.67-615.735 0-1114.929 431.887-1114.929 964.67H1832.4Z" fill="url(#paint5_radial_497_3700)"/>
            <path d="M842.95 897.548 691.22 725.55l-66.546 81.449-43.382-36.785-90.286 82.67h96.178l-36.483 44.664H842.95Z" fill="#331C5D"/>
            <path opacity=".41" d="M923.99 509.032c15.809 0 28.626-12.813 28.626-28.619 0-15.805-12.817-28.618-28.626-28.618-15.81 0-28.626 12.813-28.626 28.618 0 15.806 12.816 28.619 28.626 28.619Z" fill="url(#paint6_radial_497_3700)"/>
            <path d="m-24.455 895.489 280.583-354.486 130.674 354.486H-24.455Z" fill="#110A2F"/>
            <path d="M629.992 897.884 256.129 541.003l65.588 355.851 308.275 1.03Z" fill="url(#paint7_linear_497_3700)"/>
            <path d="m256.129 541.003 67.169 356.378h8.887l-71.169-351.708-4.887-4.67Z" fill="#8D29C1"/>
            <path d="m648.605 897.548 414.705-547.534 121.57 547.534H648.605Z" fill="#110A2F"/>
            <path d="m1582.53 895.441-519.22-545.427 121.57 547.534 397.65-2.107Z" fill="url(#paint8_linear_497_3700)"/>
            <path d="m1063.31 350.014 121.57 547.534h5.61l-115.9-536.135-11.28-11.399Z" fill="#8D29C1"/>
            <path d="m1063.31 350.014 13.34 22.775 499.01 522.7 6.87-.048-519.22-545.427Z" fill="#8D29C1"/>
            <path d="M337.192 603.868h-3.665v30.917h3.665v-30.917Zm19.452 1.101h-3.234v31.804h3.234v-31.804Zm409.1 292.579L892.68 695.279l60.534-5.7" fill="#110A2F"/>
            <path d="M871.816 571.896c-296.13 174.992-518.239 63.057-518.239 63.057" stroke="#110A2F" stroke-width="4.179" stroke-miterlimit="10"/>
            <path d="M356.26 619.482s249.082 125.012 556.399-88.801" stroke="#110A2F" stroke-width="2.089" stroke-miterlimit="10"/>
            <path d="M336.018 615.77s228.242 132.986 535.558-80.826" stroke="#110A2F" stroke-width="2.089" stroke-miterlimit="10"/>
            <path d="M355.829 637.204h-51.886l-1.892-4.047 53.778.359v3.688Zm552.374-67.99h-40.628v5.365h40.628v-5.365Z" fill="#110A2F"/>
            <path d="m406.397 637.204-2.443 15.95m-22.852-23.111-2.444 15.926m50.305-3.424v15.758m26.973-11.807-2.3 16.501m27.885-11.759v14.992" stroke="#110A2F" stroke-width="1.463" stroke-miterlimit="10"/>
            <path d="M515.656 655.285v13.34m36.027-13.34v17.387m43.909-22.201v15.759m42.952-23.685v17.386m49.586-31.205v22.44m40.124-36.952v22.439m49.444-44.783 3.066 26.343m50.472-56.806 3.546 30.63m49.562-42.82 2.611 22.584m-63.791 12.98v14.177m-54.186 11.567v14.178m-57.205 6.203v14.177m-54.832 1.006v14.178m-50.113-7.089v14.177m-44.916-11.351v14.177" stroke="#110A2F" stroke-width="2.089" stroke-miterlimit="10"/>
            <path d="M492.299 653.178v14.177" stroke="#110A2F" stroke-width="1.463" stroke-miterlimit="10"/>
            <path d="M883.386 493.01h-24.889s3.306 7.4 8.624 9.939v69.546h7.617v-69.786c2.683-1.46 5.582-4.43 8.648-9.699Z" fill="url(#paint9_linear_497_3700)"/>
            <path d="M935.608 491.789H911.03s3.258 7.304 8.528 9.795v58.913h7.522v-59.153c2.635-1.389 5.51-4.334 8.528-9.555Z" fill="url(#paint10_linear_497_3700)"/>
            <path d="M329.335 600.276s5.246 11.758 12.049 0h-12.049Zm19.667 0s5.246 11.758 12.049 0h-12.049Z" fill="#110A2F"/>
            <path opacity=".41" d="M869.012 513.821c18.271 0 33.082-14.807 33.082-33.072 0-18.266-14.811-33.073-33.082-33.073-18.27 0-33.081 14.807-33.081 33.073 0 18.265 14.811 33.072 33.081 33.072Z" fill="url(#paint11_radial_497_3700)"/>
            <path opacity=".41" d="M334.94 615.866c11.087 0 20.074-8.985 20.074-20.069s-8.987-20.069-20.074-20.069c-11.086 0-20.074 8.985-20.074 20.069s8.988 20.069 20.074 20.069Z" fill="url(#paint12_radial_497_3700)"/>
            <path d="m867.575 574.579 6.205-1.916 12.648 12.693-3.713 5.053-15.14-15.83Z" fill="#110A2F"/>
            <path d="M865.371 493.01s-6.036-8.43 1.797-19.303c0 0 1.629-1.341-.551-5.22 0 0 8.001-.264 7.738 12.669l2.706-6.107s4.145 10.752-.551 17.961h-11.139Z" fill="url(#paint13_linear_497_3700)"/>
            <path d="M869.132 479.815s-4.839 3.927-1.437 13.195h6.108s1.845-2.538 1.438-7.184l-1.989 1.868c-.024.024-.862-6.083-4.12-7.879Z" fill="url(#paint14_linear_497_3700)"/>
            <path d="M927.942 491.789s4.983-6.969-1.485-15.95c0 0-1.964-1.269-.934-5.101 0 0-4.743 4.023-5.749 8.43l-.935-1.102s-3.976 7.736-.119 13.699h9.222v.024Z" fill="url(#paint15_linear_497_3700)"/>
            <path d="M924.469 479.192s4.36 4.933 1.533 12.597h-5.054s-1.509-2.084-1.174-5.939l1.653 1.556s.359-6.729 3.042-8.214Z" fill="url(#paint16_linear_497_3700)"/>
            <path d="M333.168 600.275s-2.539-3.544.766-8.142c0 0 .671-.575-.215-2.203 0 0 3.377-.12 3.258 5.34l1.126-2.562s1.748 4.526-.216 7.567h-4.719Z" fill="url(#paint17_linear_497_3700)"/>
            <path opacity=".41" d="M355.039 612.441c9.79 0 17.727-7.934 17.727-17.722 0-9.787-7.937-17.721-17.727-17.721s-17.727 7.934-17.727 17.721c0 9.788 7.937 17.722 17.727 17.722Z" fill="url(#paint18_radial_497_3700)"/>
            <path d="M357.53 600.275s2.539-3.544-.766-8.142c0 0-.671-.575.215-2.203 0 0-3.377-.12-3.258 5.34l-1.126-2.562s-1.748 4.526.216 7.567h4.719Z" fill="url(#paint19_linear_497_3700)"/>
            <path d="M334.749 594.719s-2.037 1.653-.599 5.556h2.563s.766-1.077.599-3.017l-.839.79s-.359-2.562-1.724-3.329Z" fill="url(#paint20_linear_497_3700)"/>
            <path opacity=".53" d="m688.13 898.41 326.07-455.955-313.541 455.333-12.529.622Zm40.34-.862 212.407-303.93-197.962 303.93H728.47Z" fill="#331C5D"/>
            <path opacity=".7" d="M461.781 365.556s131.081-73.186 222.852-54.794l-.695-4.023s-83.698-22.751-222.157 58.817Z" fill="url(#paint21_radial_497_3700)"/>
            <path d="M684.034 310.786a2.012 2.012 0 1 0 0-4.023 2.012 2.012 0 0 0 0 4.023Z" fill="#8D29C1"/>
            <path opacity=".29" d="M-8.907 895.488 252.44 554.773 4.364 894.962l-13.271.526Z" fill="#331C5D"/>
            <path opacity=".53" d="m22.523 895.489 168.953-239.485L31.074 895.489h-8.552Z" fill="#331C5D"/>
            <path opacity=".24" d="m303.943 637.204 20.481-.958 19.835 28.355-25.488.383-14.828-27.78Z" fill="url(#paint22_linear_497_3700)"/>
            <path d="m331.228 637.204-31.094-38.078h-13.869l17.678 38.078" fill="url(#paint23_linear_497_3700)"/>
            <path d="m319.538 656.65-2.371-2.083 17.726-19.638 2.994 1.605-18.349 20.116Zm15.785 0-2.42-1.676 18.254-20.045 3.306 1.269-19.14 20.452Z" fill="#110A2F"/>
            <path d="m320.352 653.25-3.185 1.317.287 2.083h2.084l.814-3.4Zm15.737.479-3.186 1.293.455 1.628 1.965.072.766-2.993Z" fill="#110A2F"/>
            <path opacity=".11" d="m317.453 656.65 12.025 25.074h3.139l-13.08-25.074h-2.084Z" fill="url(#paint24_linear_497_3700)"/>
            <path opacity=".11" d="m333.264 656.65 16.6 24.332h3.138l-17.63-24.332h-2.108Z" fill="url(#paint25_linear_497_3700)"/>
            <path opacity=".76" d="M578.154 500.746c12.978 0 23.499-10.519 23.499-23.494s-10.521-23.493-23.499-23.493c-12.979 0-23.5 10.518-23.5 23.493 0 12.975 10.521 23.494 23.5 23.494Z" fill="url(#paint26_radial_497_3700)"/>
            <path opacity=".76" d="M792.526 403.515c14.777 0 26.757-11.977 26.757-26.751 0-14.774-11.98-26.75-26.757-26.75-14.778 0-26.758 11.976-26.758 26.75s11.98 26.751 26.758 26.751Z" fill="url(#paint27_radial_497_3700)"/>
            <path opacity=".76" d="M682.022 340.003c17.252 0 31.237-13.981 31.237-31.229 0-17.247-13.985-31.228-31.237-31.228-17.251 0-31.237 13.981-31.237 31.228 0 17.248 13.986 31.229 31.237 31.229Z" fill="url(#paint28_radial_497_3700)"/>
            <path d="M253.518 450.31a2.617 2.617 0 0 0 2.611-2.61 2.617 2.617 0 0 0-2.611-2.611 2.617 2.617 0 0 0-2.611 2.611c0 1.437 1.15 2.61 2.611 2.61Zm133.284-34.558c.719 0 1.318-.575 1.318-1.317 0-.718-.575-1.317-1.318-1.317-.718 0-1.317.575-1.317 1.317s.599 1.317 1.317 1.317Zm-38.471-43.753a1.933 1.933 0 0 0 1.941-1.94c0-1.078-.863-1.94-1.941-1.94s-1.94.862-1.94 1.94c0 1.077.886 1.94 1.94 1.94Zm229.823 107.864a2.617 2.617 0 0 0 2.611-2.611 2.617 2.617 0 0 0-2.611-2.61 2.617 2.617 0 0 0-2.611 2.61 2.602 2.602 0 0 0 2.611 2.611Z" fill="#8D29C1"/>
            <path d="M584.885 369.388a2.617 2.617 0 0 0 2.611-2.61 2.617 2.617 0 0 0-2.611-2.611 2.617 2.617 0 0 0-2.611 2.611 2.617 2.617 0 0 0 2.611 2.61Z" fill="#BB6EED"/>
            <path opacity=".3" d="M152.405 551.828a2.617 2.617 0 0 0 2.611-2.611 2.617 2.617 0 0 0-2.611-2.61 2.617 2.617 0 0 0-2.611 2.61 2.602 2.602 0 0 0 2.611 2.611ZM1205.63 447.7c1.43 0 2.61-1.174 2.61-2.611a2.62 2.62 0 0 0-2.61-2.61 2.614 2.614 0 0 0-2.61 2.61 2.615 2.615 0 0 0 2.61 2.611Z" fill="#BB6EED"/>
            <path opacity=".19" d="M131.348 610.525c.718 0 1.317-.574 1.317-1.317 0-.718-.575-1.317-1.317-1.317-.719 0-1.318.575-1.318 1.317 0 .743.599 1.317 1.318 1.317Z" fill="#BB6EED"/>
            <path d="M776.403 500.746c.719 0 1.318-.575 1.318-1.317 0-.719-.575-1.318-1.318-1.318-.718 0-1.317.575-1.317 1.318 0 .742.599 1.317 1.317 1.317Z" fill="#BB6EED"/>
            <path d="M792.525 379.159a2.402 2.402 0 0 0 2.396-2.395 2.402 2.402 0 0 0-2.396-2.394 2.402 2.402 0 0 0-2.395 2.394 2.402 2.402 0 0 0 2.395 2.395Z" fill="#8D29C1"/>
            <path opacity=".24" d="M670.116 464.847c.718 0 1.317-.575 1.317-1.317 0-.719-.575-1.318-1.317-1.318-.719 0-1.318.575-1.318 1.318.024.718.599 1.317 1.318 1.317Z" fill="#BB6EED"/>
            <path opacity=".52" d="M866.162 407.131c.719 0 1.318-.575 1.318-1.317 0-.719-.575-1.317-1.318-1.317-.718 0-1.317.574-1.317 1.317.024.742.599 1.317 1.317 1.317Z" fill="#BB6EED"/>
            <path opacity=".24" d="M598.732 516.791c.718 0 1.317-.575 1.317-1.317 0-.719-.575-1.317-1.317-1.317-.719 0-1.318.574-1.318 1.317.024.742.599 1.317 1.318 1.317Z" fill="#BB6EED"/>
            <path d="M454.787 520.216c.91 0 1.653-.743 1.653-1.653s-.743-1.652-1.653-1.652-1.653.742-1.653 1.652c0 .91.743 1.653 1.653 1.653Z" fill="#8D29C1"/>
            <path d="M348.164 513.055c-.695 1.844-2.348 2.898-3.306 3.377-.264.12-.264.479 0 .622.958.479 2.611 1.509 3.306 3.353a.34.34 0 0 0 .646 0c.695-1.844 2.348-2.898 3.306-3.353.264-.119.264-.479 0-.622-.958-.479-2.611-1.509-3.306-3.377a.34.34 0 0 0-.646 0Z" fill="#BB6EED"/>
            <path d="M917.833 273.139c-1.724 4.574-5.821 7.185-8.192 8.358-.623.311-.623 1.221 0 1.533 2.371 1.173 6.468 3.784 8.192 8.358a.832.832 0 0 0 1.582 0c1.724-4.574 5.821-7.185 8.192-8.358.623-.312.623-1.222 0-1.533-2.371-1.173-6.468-3.784-8.192-8.358-.264-.766-1.294-.766-1.582 0Z" fill="#8D29C1"/>
        </g>
    </g>
    <defs>
        <linearGradient id="paint0_linear_497_3700" x1="464" y1="816.964" x2="842.393" y2="351.225" gradientUnits="userSpaceOnUse">
            <stop stop-color="#14072E"/>
            <stop offset="1" stop-color="#0A081E"/>
        </linearGradient>
        <linearGradient id="paint1_linear_497_3700" x1="34" y1="54.779" x2="34" y2="12.48" gradientUnits="userSpaceOnUse">
            <stop offset=".086" stop-color="#8D29C1"/>
            <stop offset=".238" stop-color="#942BBB"/>
            <stop offset=".467" stop-color="#A92FAC"/>
            <stop offset=".741" stop-color="#CA3793"/>
            <stop offset="1" stop-color="#F03F77"/>
        </linearGradient>
        <linearGradient id="paint2_linear_497_3700" x1="1039.82" y1="25.059" x2="1061.35" y2="50.118" gradientUnits="userSpaceOnUse">
            <stop stop-color="#371DB6"/>
            <stop offset="1" stop-color="#C2B5FA"/>
        </linearGradient>
        <linearGradient id="paint3_linear_497_3700" x1="1346" y1="26" x2="1346" y2="36" gradientUnits="userSpaceOnUse">
            <stop stop-color="#FEC0AB"/>
            <stop offset="1" stop-color="#FA5894"/>
        </linearGradient>
        <linearGradient id="paint4_linear_497_3700" x1="1346" y1="36" x2="1346" y2="46" gradientUnits="userSpaceOnUse">
            <stop stop-color="#660860"/>
            <stop offset="1" stop-color="#9380B7"/>
        </linearGradient>
        <linearGradient id="paint7_linear_497_3700" x1="747.431" y1="1140.65" x2="135.976" y2="577.961" gradientUnits="userSpaceOnUse">
            <stop offset=".29" stop-color="#1E1644"/>
            <stop offset=".64" stop-color="#6B2F91"/>
            <stop offset="1" stop-color="#F03F77"/>
        </linearGradient>
        <linearGradient id="paint8_linear_497_3700" x1="1776.18" y1="1223.54" x2="887.117" y2="405.383" gradientUnits="userSpaceOnUse">
            <stop offset=".29" stop-color="#1E1644"/>
            <stop offset=".64" stop-color="#6B2F91"/>
            <stop offset="1" stop-color="#F03F77"/>
        </linearGradient>
        <linearGradient id="paint9_linear_497_3700" x1="871.163" y1="465.931" x2="870.512" y2="546.059" gradientUnits="userSpaceOnUse">
            <stop offset=".171" stop-color="#6B2F91"/>
            <stop offset=".722" stop-color="#110A2F"/>
        </linearGradient>
        <linearGradient id="paint10_linear_497_3700" x1="923.439" y1="475.29" x2="923.037" y2="535.048" gradientUnits="userSpaceOnUse">
            <stop stop-color="#6B2F91"/>
            <stop offset=".722" stop-color="#110A2F"/>
        </linearGradient>
        <linearGradient id="paint13_linear_497_3700" x1="895.5" y1="435.255" x2="865.657" y2="492.079" gradientUnits="userSpaceOnUse">
            <stop offset=".29" stop-color="#1E1644"/>
            <stop offset=".64" stop-color="#6B2F91"/>
            <stop offset="1" stop-color="#F03F77"/>
        </linearGradient>
        <linearGradient id="paint14_linear_497_3700" x1="884.081" y1="462.008" x2="868.018" y2="492.594" gradientUnits="userSpaceOnUse">
            <stop offset=".29" stop-color="#1E1644"/>
            <stop offset=".64" stop-color="#6B2F91"/>
            <stop offset="1" stop-color="#F03F77"/>
        </linearGradient>
        <linearGradient id="paint15_linear_497_3700" x1="901.598" y1="442.267" x2="927.296" y2="491.199" gradientUnits="userSpaceOnUse">
            <stop offset=".29" stop-color="#1E1644"/>
            <stop offset=".64" stop-color="#6B2F91"/>
            <stop offset="1" stop-color="#F03F77"/>
        </linearGradient>
        <linearGradient id="paint16_linear_497_3700" x1="910.42" y1="461.923" x2="925.856" y2="491.315" gradientUnits="userSpaceOnUse">
            <stop offset=".29" stop-color="#1E1644"/>
            <stop offset=".64" stop-color="#6B2F91"/>
            <stop offset="1" stop-color="#F03F77"/>
        </linearGradient>
        <linearGradient id="paint17_linear_497_3700" x1="345.852" y1="575.96" x2="333.285" y2="599.89" gradientUnits="userSpaceOnUse">
            <stop offset=".29" stop-color="#1E1644"/>
            <stop offset=".64" stop-color="#6B2F91"/>
            <stop offset="1" stop-color="#F03F77"/>
        </linearGradient>
        <linearGradient id="paint19_linear_497_3700" x1="342.683" y1="581.985" x2="356.777" y2="597.122" gradientUnits="userSpaceOnUse">
            <stop offset=".29" stop-color="#1E1644"/>
            <stop offset=".64" stop-color="#6B2F91"/>
            <stop offset="1" stop-color="#F03F77"/>
        </linearGradient>
        <linearGradient id="paint20_linear_497_3700" x1="341.044" y1="587.226" x2="334.279" y2="600.107" gradientUnits="userSpaceOnUse">
            <stop offset=".29" stop-color="#1E1644"/>
            <stop offset=".64" stop-color="#6B2F91"/>
            <stop offset="1" stop-color="#F03F77"/>
        </linearGradient>
        <linearGradient id="paint22_linear_497_3700" x1="313.802" y1="634.626" x2="332.033" y2="665.694" gradientUnits="userSpaceOnUse">
            <stop offset=".189" stop-color="#110A2F"/>
            <stop offset=".398" stop-color="#130B30" stop-opacity=".644"/>
            <stop offset=".493" stop-color="#1A0D36" stop-opacity=".482"/>
            <stop offset=".565" stop-color="#27113E" stop-opacity=".36"/>
            <stop offset=".626" stop-color="#39174B" stop-opacity=".257"/>
            <stop offset=".679" stop-color="#511F5B" stop-opacity=".166"/>
            <stop offset=".727" stop-color="#6E286F" stop-opacity=".084"/>
            <stop offset=".771" stop-color="#903386" stop-opacity=".01"/>
            <stop offset=".777" stop-color="#95358A" stop-opacity="0"/>
        </linearGradient>
        <linearGradient id="paint23_linear_497_3700" x1="362.156" y1="589.705" x2="278.773" y2="634.177" gradientUnits="userSpaceOnUse">
            <stop offset=".64" stop-color="#110A2F"/>
            <stop offset=".822" stop-color="#070523" stop-opacity=".496"/>
            <stop offset="1" stop-color="#03031E" stop-opacity="0"/>
        </linearGradient>
        <linearGradient id="paint24_linear_497_3700" x1="314.924" y1="653.073" x2="331.386" y2="680.767" gradientUnits="userSpaceOnUse">
            <stop offset=".64" stop-color="#110A2F"/>
            <stop offset=".822" stop-color="#070523" stop-opacity=".496"/>
            <stop offset="1" stop-color="#03031E" stop-opacity="0"/>
        </linearGradient>
        <linearGradient id="paint25_linear_497_3700" x1="328.485" y1="644.176" x2="345.897" y2="673.467" gradientUnits="userSpaceOnUse">
            <stop offset=".64" stop-color="#110A2F"/>
            <stop offset=".822" stop-color="#070523" stop-opacity=".496"/>
            <stop offset="1" stop-color="#03031E" stop-opacity="0"/>
        </linearGradient>
        <linearGradient id="paint29_linear_497_3700" x1="824.118" y1="217.471" x2="808.941" y2="199.824" gradientUnits="userSpaceOnUse">
            <stop stop-color="#F03F77"/>
            <stop offset="1" stop-color="#8D29C1"/>
        </linearGradient>
        <linearGradient id="paint30_linear_497_3700" x1="806.824" y1="304.059" x2="828.353" y2="329.118" gradientUnits="userSpaceOnUse">
            <stop stop-color="#371DB6"/>
            <stop offset="1" stop-color="#C2B5FA"/>
        </linearGradient>
        <radialGradient id="paint5_radial_497_3700" cx="0" cy="0" r="1" gradientUnits="userSpaceOnUse" gradientTransform="matrix(1040.3 0 0 900.123 701.288 954.258)">
            <stop offset=".251" stop-color="#5C308E"/>
            <stop offset=".764" stop-color="#372C7B" stop-opacity=".5"/>
            <stop offset=".811" stop-color="#352A77" stop-opacity=".4"/>
            <stop offset=".86" stop-color="#2E256A" stop-opacity=".296"/>
            <stop offset=".91" stop-color="#231C56" stop-opacity=".191"/>
            <stop offset=".96" stop-color="#130F39" stop-opacity=".085"/>
            <stop offset="1" stop-color="#03031C" stop-opacity="0"/>
        </radialGradient>
        <radialGradient id="paint6_radial_497_3700" cx="0" cy="0" r="1" gradientUnits="userSpaceOnUse" gradientTransform="matrix(28.6293 0 0 28.6218 923.991 480.424)">
            <stop offset=".167" stop-color="#F03F77"/>
            <stop offset="1" stop-color="#03031E" stop-opacity="0"/>
        </radialGradient>
        <radialGradient id="paint11_radial_497_3700" cx="0" cy="0" r="1" gradientUnits="userSpaceOnUse" gradientTransform="matrix(33.0696 0 0 33.0609 869.007 480.751)">
            <stop offset=".167" stop-color="#F03F77"/>
            <stop offset="1" stop-color="#03031E" stop-opacity="0"/>
        </radialGradient>
        <radialGradient id="paint12_radial_497_3700" cx="0" cy="0" r="1" gradientUnits="userSpaceOnUse" gradientTransform="matrix(20.0796 0 0 20.0743 334.947 595.794)">
            <stop offset=".167" stop-color="#F03F77"/>
            <stop offset="1" stop-color="#03031E" stop-opacity="0"/>
        </radialGradient>
        <radialGradient id="paint18_radial_497_3700" cx="0" cy="0" r="1" gradientUnits="userSpaceOnUse" gradientTransform="matrix(17.7359 0 0 17.7312 355.027 594.723)">
            <stop offset=".167" stop-color="#F03F77"/>
            <stop offset="1" stop-color="#03031E" stop-opacity="0"/>
        </radialGradient>
        <radialGradient id="paint21_radial_497_3700" cx="0" cy="0" r="1" gradientUnits="userSpaceOnUse" gradientTransform="matrix(238.00409 -40.94859 21.90003 127.28879 713.277 289.1)">
            <stop offset=".163" stop-color="#5C308E"/>
            <stop offset=".64" stop-color="#372C7B" stop-opacity=".5"/>
            <stop offset=".71" stop-color="#352A77" stop-opacity=".4"/>
            <stop offset=".782" stop-color="#2E256A" stop-opacity=".296"/>
            <stop offset=".856" stop-color="#231C56" stop-opacity=".191"/>
            <stop offset=".93" stop-color="#130F39" stop-opacity=".085"/>
            <stop offset=".989" stop-color="#03031C" stop-opacity="0"/>
        </radialGradient>
        <radialGradient id="paint26_radial_497_3700" cx="0" cy="0" r="1" gradientUnits="userSpaceOnUse" gradientTransform="matrix(23.5114 0 0 23.5052 578.146 477.245)">
            <stop stop-color="#5C308E"/>
            <stop offset=".75" stop-color="#1F174B" stop-opacity="0"/>
        </radialGradient>
        <radialGradient id="paint27_radial_497_3700" cx="0" cy="0" r="1" gradientUnits="userSpaceOnUse" gradientTransform="matrix(26.7587 0 0 26.7516 792.514 376.77)">
            <stop stop-color="#5C308E"/>
            <stop offset=".75" stop-color="#1F174B" stop-opacity="0"/>
        </radialGradient>
        <radialGradient id="paint28_radial_497_3700" cx="0" cy="0" r="1" gradientUnits="userSpaceOnUse" gradientTransform="matrix(31.23 0 0 31.2217 682.012 308.773)">
            <stop stop-color="#5C308E"/>
            <stop offset=".75" stop-color="#1F174B" stop-opacity="0"/>
        </radialGradient>
        <clipPath id="clip0_497_3700">
            <path fill="#fff" d="M0 0h1440v900H0z"/>
        </clipPath>
    </defs>
</svg>
