<svg width="360" height="204" viewBox="0 0 360 204" fill="none" xmlns="http://www.w3.org/2000/svg">
<g clip-path="url(#clip0_10_1011)">
<path opacity="0.76" d="M398.351 161.715C398.351 51.4142 297.983 -38 174.176 -38C50.3676 -38 -50 51.4142 -50 161.715H398.351Z" fill="url(#paint0_radial_10_1011)"/>
<path d="M238.849 136.844L231.25 136.837V136.803H228.21V136.837L220.796 136.83V136.803H217.757V136.823L210.342 136.817V136.803H207.303V136.817L199.889 136.81V136.803H196.849L132.806 136.741L133.6 138.371H137.078V162.016H140.117V142.464C140.781 141.581 141.911 141.006 143.198 141.006C145.245 141.006 146.902 142.478 146.902 144.292V162.023H149.941V143.97C149.941 142.396 151.276 141.02 152.981 141.006C152.994 141.006 153.008 141.006 153.022 141.006C154.672 141.006 156.055 141.971 156.534 143.293V162.016H159.573V144.285C159.573 142.471 161.23 140.999 163.277 140.999C165.324 140.999 166.981 142.471 166.981 144.285V162.016H170.02V143.964C170.02 142.389 171.355 141.013 173.06 140.999C173.073 140.999 173.087 140.999 173.101 140.999C174.751 140.999 176.134 141.965 176.613 143.286V162.009H179.652V144.279C179.652 142.464 181.309 140.993 183.356 140.993C185.403 140.993 187.06 142.464 187.06 144.279V162.009H187.231H190.099H190.27V143.957C190.27 142.382 191.605 141.006 193.31 140.993C193.324 140.993 193.337 140.993 193.351 140.993C195.001 140.993 196.384 141.958 196.863 143.279V162.003H199.902V144.272C199.902 142.458 201.559 140.986 203.606 140.986C205.653 140.986 207.31 142.458 207.31 144.272V162.003H210.349V144.272C210.349 142.458 212.006 140.986 214.053 140.986C216.1 140.986 217.757 142.458 217.757 144.272V162.003H220.796V144.272C220.796 142.458 222.453 140.986 224.5 140.986C226.547 140.986 228.203 142.458 228.203 144.272V162.003H231.243V144.272C231.243 142.458 232.9 140.986 234.947 140.986C236.994 140.986 238.65 142.458 238.65 144.272V137.7H238.411L238.849 136.844Z" fill="#110A2F"/>
<g opacity="0.49">
<path opacity="0.2" d="M168.158 163.947L112.515 261.172H115.096L168.603 163.947H168.158Z" fill="#8F5EDB"/>
<path opacity="0.2" d="M159.847 163.947L-10.1843 259.858H-7.49383L160.443 163.947H159.847Z" fill="#8F5EDB"/>
<path opacity="0.2" d="M-34.4324 230.242L152.68 163.947H153.077L-34.4324 232.344V230.242Z" fill="#8F5EDB"/>
<path opacity="0.2" d="M-34.186 210.177V210.999L145.751 163.947H144.957L-34.186 210.177Z" fill="#8F5EDB"/>
<path opacity="0.2" d="M-34.4324 198.142V198.943L137.81 163.947H137.235L-34.4324 198.142Z" fill="#8F5EDB"/>
<path opacity="0.2" d="M-34.4324 191.091V191.83L129.835 164.002L130.177 163.947L-34.4324 191.091Z" fill="#8F5EDB"/>
<path opacity="0.2" d="M-34.4324 185.546V186.155L123.53 164.029L124.112 163.947L-34.4324 185.546Z" fill="#8F5EDB"/>
<path opacity="0.2" d="M-34.2544 181.979L-34.1859 182.588L118.135 163.947H117.663L-34.2544 181.979Z" fill="#8F5EDB"/>
<path opacity="0.2" d="M-34.186 178.809V179.288L114.52 163.947H114.103L-34.186 178.809Z" fill="#8F5EDB"/>
<path opacity="0.2" d="M-34.186 176.016V176.571L109.954 163.947H109.4L-34.186 176.016Z" fill="#8F5EDB"/>
<path opacity="0.2" d="M-34.186 173.264V173.736L105.655 163.947H104.895L-34.186 173.264Z" fill="#8F5EDB"/>
<path opacity="0.2" d="M-34.1859 170.608L-34.2544 171.142L101.417 163.947L-34.1859 170.608Z" fill="#8F5EDB"/>
<path opacity="0.2" d="M-34.2544 168.308V168.842L94.3388 163.947H93.2435L-34.2544 168.308Z" fill="#8F5EDB"/>
<path opacity="0.2" d="M-34.2544 166.001V166.658L81.9683 163.947L-34.2544 166.001Z" fill="#8F5EDB"/>
<path opacity="0.2" d="M175.011 163.947L230.654 261.172H228.073L174.573 163.947H175.011Z" fill="#8F5EDB"/>
<path opacity="0.2" d="M183.328 163.947L353.353 259.858H350.663L182.733 163.947H183.328Z" fill="#8F5EDB"/>
<path opacity="0.2" d="M377.601 230.242L190.496 163.947H190.099L377.601 232.344V230.242Z" fill="#8F5EDB"/>
<path opacity="0.2" d="M377.355 210.177V210.999L197.424 163.947H198.218L377.355 210.177Z" fill="#8F5EDB"/>
<path opacity="0.2" d="M377.601 198.142V198.943L205.359 163.947H205.934L377.601 198.142Z" fill="#8F5EDB"/>
<path opacity="0.2" d="M377.601 191.091V191.83L213.334 164.002L212.992 163.947L377.601 191.091Z" fill="#8F5EDB"/>
<path opacity="0.2" d="M377.601 185.546V186.155L219.639 164.029L219.057 163.947L377.601 185.546Z" fill="#8F5EDB"/>
<path opacity="0.2" d="M377.423 181.979L377.355 182.588L225.034 163.947H225.506L377.423 181.979Z" fill="#8F5EDB"/>
<path opacity="0.2" d="M377.355 178.809V179.288L228.655 163.947H229.066L377.355 178.809Z" fill="#8F5EDB"/>
<path opacity="0.2" d="M377.355 176.016V176.571L233.215 163.947H233.769L377.355 176.016Z" fill="#8F5EDB"/>
<path opacity="0.2" d="M377.355 173.264V173.736L237.521 163.947H238.281L377.355 173.264Z" fill="#8F5EDB"/>
<path opacity="0.2" d="M377.355 170.608L377.423 171.142L241.751 163.947L377.355 170.608Z" fill="#8F5EDB"/>
<path opacity="0.2" d="M377.423 168.308V168.842L248.83 163.947H249.925L377.423 168.308Z" fill="#8F5EDB"/>
<path opacity="0.2" d="M377.423 166.001V166.658L261.208 163.947L377.423 166.001Z" fill="#8F5EDB"/>
<path opacity="0.2" d="M378.519 199.915H-34.4324V200.388H378.519V199.915Z" fill="#8F5EDB"/>
<path opacity="0.2" d="M378.519 195.636H-34.4324V196.109H378.519V195.636Z" fill="#8F5EDB"/>
<path opacity="0.2" d="M376.841 192.734H-35.2341V193.206H376.841V192.734Z" fill="#8F5EDB"/>
<path opacity="0.2" d="M377.423 189.982H-33.337V190.379H377.423V189.982Z" fill="#8F5EDB"/>
<path opacity="0.2" d="M377.601 187.805H-36.7532V188.079H377.601V187.805Z" fill="#8F5EDB"/>
<path opacity="0.2" d="M377.642 185.874H-36.7532V186.148H377.642V185.874Z" fill="#8F5EDB"/>
<path opacity="0.2" d="M377.642 184.245H-36.7532V184.519H377.642V184.245Z" fill="#8F5EDB"/>
<path opacity="0.2" d="M377.642 182.314H-36.7532V182.588H377.642V182.314Z" fill="#8F5EDB"/>
<path opacity="0.2" d="M377.642 181.082H-36.7532V181.356H377.642V181.082Z" fill="#8F5EDB"/>
<path opacity="0.2" d="M378.279 179.973H-34.1859V180.151H378.279V179.973Z" fill="#8F5EDB"/>
<path opacity="0.2" d="M378.279 178.748H-34.186V178.926H378.279V178.748Z" fill="#8F5EDB"/>
<path opacity="0.2" d="M378.279 177.351H-34.186V177.529H378.279V177.351Z" fill="#8F5EDB"/>
<path opacity="0.2" d="M378.279 176.16H-34.1859V176.338H378.279V176.16Z" fill="#8F5EDB"/>
<path opacity="0.2" d="M378.279 174.873H-34.1859V175.051H378.279V174.873Z" fill="#8F5EDB"/>
<path opacity="0.2" d="M378.279 173.586H-34.1859V173.764H378.279V173.586Z" fill="#8F5EDB"/>
<path opacity="0.2" d="M377.649 172.607H-34.1859V172.833H377.649V172.607Z" fill="#8F5EDB"/>
<path opacity="0.2" d="M378.279 171.676H-34.186V171.826H378.279V171.676Z" fill="#8F5EDB"/>
<path opacity="0.2" d="M378.279 170.649H-34.1859V170.8H378.279V170.649Z" fill="#8F5EDB"/>
<path opacity="0.2" d="M378.279 169.485H-34.1859V169.635H378.279V169.485Z" fill="#8F5EDB"/>
<path opacity="0.2" d="M378.279 168.486H-34.1859V168.636H378.279V168.486Z" fill="#8F5EDB"/>
<path opacity="0.2" d="M378.279 167.411H-34.186V167.561H378.279V167.411Z" fill="#8F5EDB"/>
<path opacity="0.2" d="M378.279 166.329H-34.186V166.48H378.279V166.329Z" fill="#8F5EDB"/>
<path opacity="0.2" d="M378.279 165.693H-34.186V165.775H378.279V165.693Z" fill="#8F5EDB"/>
<path opacity="0.2" d="M378.279 165.138H-34.1859V165.22H378.279V165.138Z" fill="#8F5EDB"/>
<path opacity="0.2" d="M378.279 164.542H-34.1859V164.625H378.279V164.542Z" fill="#8F5EDB"/>
<path opacity="0.49" d="M378.279 163.947H-34.186V164.029H378.279V163.947Z" fill="#8F5EDB"/>
</g>
<path opacity="0.2" d="M383.242 261.172V164.084L285.141 164.324V261.172H383.242Z" fill="url(#paint1_linear_10_1011)"/>
<path opacity="0.2" d="M-44.2152 261.172V164.084L53.8864 164.324V261.172H-44.2152Z" fill="url(#paint2_linear_10_1011)"/>
<path d="M129.732 144.272L135.209 129.218L119.463 134.345L129.732 144.272Z" fill="#110A2F"/>
<path d="M65.675 161.66L52.928 93.7832L118.56 161.66H65.675Z" fill="url(#paint3_linear_10_1011)"/>
<path d="M65.675 161.66L52.9279 93.7832L-19.0087 161.66H65.675Z" fill="#110A2F"/>
<path d="M15.2413 161.661L4.97934 108.05L-45.16 161.661H15.2413Z" fill="#110A2F"/>
<path d="M41.1325 127.787L31.8152 138.035L4.97931 108.05L15.2413 161.661L52.9279 161.558L41.1325 127.787Z" fill="url(#paint4_linear_10_1011)"/>
<path d="M80.243 122.03L111.419 110.474L109.112 151.884L80.243 122.03Z" fill="#110A2F"/>
<path d="M128.274 138.206L111.419 110.474L109.112 151.884L118.56 161.66H143.841L135.209 129.218L128.274 138.206Z" fill="url(#paint5_linear_10_1011)"/>
<path opacity="0.45" d="M4.97931 108.05L15.2413 161.661L16.3435 161.688L6.33479 110.987L32.0069 140.253L41.5637 129.019L41.1325 127.787L31.8152 138.035L4.97931 108.05Z" fill="#8D29C1"/>
<path d="M45.8699 161.688L69.6593 131.874L73.7669 161.688H45.8699Z" fill="#110A2F"/>
<path d="M104.655 161.688L69.6593 131.874L73.7668 161.688H104.655Z" fill="url(#paint6_linear_10_1011)"/>
<path d="M4.97937 161.688L-23.0614 125.617L-25.9161 161.688H4.97937Z" fill="url(#paint7_linear_10_1011)"/>
<path opacity="0.45" d="M61.903 141.588L62.9093 140.328L54.6805 97.4663L117.149 161.688L118.56 161.66L52.928 93.7832L61.903 141.588Z" fill="#8D29C1"/>
<path opacity="0.45" d="M69.6593 131.874L73.7668 161.688H75.3893L70.9395 134.263L103.033 161.688H104.655L69.6593 131.874Z" fill="#8D29C1"/>
<path d="M111.419 110.474L109.112 151.884L110.433 153.411L112.227 114.068L128.144 140.89L135.558 131.436L135.209 129.218L128.274 138.206L111.419 110.474Z" fill="#8D29C1"/>
<path d="M-23.0614 125.617L-25.9161 161.688H-24.0267L-22.2262 128.889L3.69919 161.688H4.97937L-23.0614 125.617Z" fill="#8D29C1"/>
<path d="M269.963 161.66L270.08 100.718L326.202 161.66H269.963Z" fill="url(#paint8_linear_10_1011)"/>
<path d="M270.08 161.66V100.718L225.979 161.688L270.08 161.66Z" fill="#110A2F"/>
<path d="M307.985 161.661L297.723 103.286L247.577 161.661H307.985Z" fill="#110A2F"/>
<path d="M333.877 124.775L324.559 135.934L297.723 103.286L307.985 161.661L345.672 161.551L333.877 124.775Z" fill="url(#paint9_linear_10_1011)"/>
<path d="M307.985 161.688L331.775 117.148L335.882 161.688H307.985Z" fill="#110A2F"/>
<path d="M211.068 161.688L226.862 128.485L229.319 161.688H211.068Z" fill="#110A2F"/>
<path d="M265.842 159.086L248.378 124.85L240.971 138.911L226.862 128.485L229.319 161.688L267.17 161.715L265.842 159.086Z" fill="url(#paint10_linear_10_1011)"/>
<path d="M383.242 161.613L359.624 124.85L349.273 139.418L331.775 117.148L335.882 161.688L383.242 161.613Z" fill="url(#paint11_linear_10_1011)"/>
<path d="M226.862 128.485L229.319 161.688H231.53L228.272 130.991L241.375 140.828L248.563 127.739L265.472 161.688L267.17 161.715L248.378 124.85L240.971 138.912L226.862 128.485Z" fill="#8D29C1"/>
<path d="M270.08 135.461V100.718L285.524 117.484L285.004 118.093L270.812 102.58L270.963 134.434L270.08 135.461Z" fill="#8D29C1"/>
<path d="M297.723 103.286L307.985 161.688L309.122 159.566L299.147 106.49L322.252 134.982L322.854 133.853L297.723 103.286Z" fill="#8D29C1"/>
<path d="M331.775 117.148L335.882 161.688H337.642L332.767 119.695L349.28 141.088L359.549 126.883L381.798 161.619L383.242 161.612L359.624 124.85L349.273 139.418L331.775 117.148Z" fill="#8D29C1"/>
<path opacity="0.33" d="M7.32749 120.612L-10.9647 140.924L-10.0063 142.156L7.66978 121.995L7.32749 120.612Z" fill="url(#paint12_linear_10_1011)"/>
<g clip-path="url(#clip1_10_1011)">
<path d="M121.503 40C109.097 40 99 50.0906 99 62.5C99 71.4175 104.22 79.1436 111.764 82.7821V82.7958H111.796C114.738 84.2072 118.029 85 121.503 85C133.91 85 144.006 74.9048 144.006 62.5C144.006 50.0952 133.91 40 121.503 40ZM121.503 41.8467C132.892 41.8467 142.159 51.1125 142.159 62.5C142.159 65.7719 141.389 68.8651 140.033 71.6191C137.058 70.1757 134.038 69.1034 130.99 68.3793V51.1492C130.99 50.5535 130.513 50.0677 129.931 50.0677H126.146H116.613H112.827C112.241 50.0677 111.769 50.5535 111.769 51.1492V68.4572C108.812 69.1858 105.875 70.2352 102.983 71.6191C101.622 68.8651 100.852 65.7719 100.852 62.4954C100.847 51.1125 110.114 41.8467 121.503 41.8467ZM104.17 73.7088C106.617 72.4944 109.161 71.5642 111.764 70.9226V80.7062C108.68 79.0519 106.067 76.6324 104.17 73.7088ZM116.613 82.5621V59.5076C116.613 56.8452 118.799 54.6273 121.411 54.6273C124.024 54.6273 126.146 56.7856 126.146 59.4526C126.146 59.471 126.141 59.4893 126.141 59.5076H126.146V67.527C123.918 67.2749 121.682 67.1833 119.45 67.3024L117.607 69.9695C120.472 69.7266 123.258 69.7495 126.008 70.0565C126.031 70.0611 126.059 70.0611 126.082 70.0611C126.1 70.0611 126.118 70.0657 126.146 70.0703C126.622 70.1253 128.373 70.3498 129.968 70.7485L126.146 72.0453V82.6171C124.652 82.9608 123.103 83.1487 121.508 83.1487C119.816 83.1533 118.18 82.9425 116.613 82.5621ZM130.99 80.8345V70.9638C133.593 71.6191 136.174 72.5769 138.758 73.8325C136.815 76.779 134.139 79.1986 130.99 80.8345Z" fill="url(#paint13_linear_10_1011)"/>
<path d="M156.39 47.1213H162.939C166.766 47.1213 169.076 49.3668 169.076 52.6662V52.712C169.076 56.4467 166.188 58.3438 162.595 58.3438H159.914V63.1555H156.385V47.1213H156.39ZM162.71 55.2049C164.474 55.2049 165.505 54.1509 165.505 52.7761V52.7303C165.505 51.1493 164.405 50.3016 162.641 50.3016H159.914V55.2049H162.71Z" fill="white"/>
<path d="M171.899 55.1865V55.1407C171.899 50.5811 175.497 46.851 180.442 46.851C185.392 46.851 188.939 50.5398 188.939 55.0948V55.1407C188.939 59.7002 185.341 63.4304 180.396 63.4304C175.446 63.4304 171.899 59.7415 171.899 55.1865ZM185.254 55.1865V55.1407C185.254 52.3912 183.238 50.0999 180.396 50.0999C177.554 50.0999 175.584 52.3454 175.584 55.0903V55.1361C175.584 57.8856 177.6 60.1768 180.442 60.1768C183.283 60.1768 185.254 57.9314 185.254 55.1865Z" fill="white"/>
<path d="M192.995 47.1213H196.249L203.761 56.992V47.1213H207.244V63.1555H204.242L196.478 52.964V63.1555H192.995V47.1213Z" fill="white"/>
<path d="M215.745 50.3749H210.864V47.1213H224.151V50.3749H219.27V63.1555H215.741V50.3749H215.745Z" fill="white"/>
<path d="M227.771 47.1213H239.866V50.2603H231.278V53.5139H238.835V56.6529H231.278V60.021H239.981V63.16H227.771V47.1213Z" fill="white"/>
<path d="M244.037 47.1213H247.841L252.057 53.9034L256.274 47.1213H260.078V63.1555H256.572V52.6891L252.057 59.5353H251.966L247.497 52.7532V63.1509H244.037V47.1213Z" fill="white"/>
<path d="M156.371 70.4049H157.164L161.898 76.4263V70.4049H162.723V77.9202H162.045L157.192 71.7567V77.9202H156.367V70.4049H156.371Z" fill="white"/>
<path d="M172.586 70.4049H178.017V71.1793H173.434V73.7455H177.536V74.52H173.434V77.1503H178.072V77.9248H172.586V70.4049Z" fill="white"/>
<path d="M189.42 71.1885H186.886V70.4049H192.802V71.1885H190.268V77.9202H189.42V71.1885Z" fill="white"/>
<path d="M201.501 70.4049H202.427L204.576 76.6645L206.639 70.382H207.335L209.398 76.6645L211.547 70.4049H212.436L209.751 77.9751H209.031L206.969 71.8758L204.897 77.9751H204.187L201.501 70.4049Z" fill="white"/>
<path d="M220.984 74.1808V74.1579C220.984 72.0866 222.542 70.272 224.829 70.272C227.116 70.272 228.651 72.0637 228.651 74.135V74.1579C228.651 76.2292 227.093 78.0439 224.806 78.0439C222.519 78.0485 220.984 76.2567 220.984 74.1808ZM227.771 74.1808V74.1579C227.771 72.4487 226.525 71.0556 224.806 71.0556C223.088 71.0556 221.864 72.4303 221.864 74.135V74.1579C221.864 75.8672 223.11 77.2603 224.829 77.2603C226.543 77.2648 227.771 75.8901 227.771 74.1808Z" fill="white"/>
<path d="M238.175 70.4049H241.406C242.341 70.4049 243.07 70.6844 243.542 71.1564C243.918 71.5322 244.124 72.0363 244.124 72.6366V72.6595C244.124 73.9059 243.267 74.6437 242.085 74.8499L244.394 77.9202H243.354L241.172 75.0011H239.023V77.9202H238.175V70.4049ZM241.333 74.2359C242.451 74.2359 243.267 73.6539 243.267 72.6916V72.6687C243.267 71.7338 242.557 71.1885 241.347 71.1885H239.028V74.2359H241.333Z" fill="white"/>
<path d="M253.671 70.4049H254.518V74.8912L258.836 70.4049H259.94L256.709 73.6906L260.069 77.9202H259.005L256.118 74.2817L254.518 75.9039V77.9248H253.671V70.4049Z" fill="white"/>
</g>
</g>
<defs>
<radialGradient id="paint0_radial_10_1011" cx="0" cy="0" r="1" gradientUnits="userSpaceOnUse" gradientTransform="translate(170.917 173.891) scale(209.171 186.351)">
<stop stop-color="#5C308E"/>
<stop offset="0.5051" stop-color="#372C7B"/>
<stop offset="1" stop-color="#03031C" stop-opacity="0"/>
</radialGradient>
<linearGradient id="paint1_linear_10_1011" x1="285.14" y1="212.628" x2="383.245" y2="212.628" gradientUnits="userSpaceOnUse">
<stop stop-color="#03031C" stop-opacity="0"/>
<stop offset="1" stop-color="#03031C"/>
</linearGradient>
<linearGradient id="paint2_linear_10_1011" x1="53.8863" y1="212.628" x2="-44.2185" y2="212.628" gradientUnits="userSpaceOnUse">
<stop stop-color="#03031C" stop-opacity="0"/>
<stop offset="1" stop-color="#03031C"/>
</linearGradient>
<linearGradient id="paint3_linear_10_1011" x1="93.7586" y1="166.115" x2="66.5445" y2="92.2481" gradientUnits="userSpaceOnUse">
<stop stop-color="#1E1644"/>
<stop offset="0.3426" stop-color="#6B2F91"/>
<stop offset="1" stop-color="#F03F77"/>
</linearGradient>
<linearGradient id="paint4_linear_10_1011" x1="47.2861" y1="175.756" x2="5.10041" y2="107.205" gradientUnits="userSpaceOnUse">
<stop offset="0.2899" stop-color="#1E1644"/>
<stop offset="0.6332" stop-color="#6B2F91"/>
<stop offset="1" stop-color="#F03F77"/>
</linearGradient>
<linearGradient id="paint5_linear_10_1011" x1="138.643" y1="168.562" x2="104.085" y2="109.849" gradientUnits="userSpaceOnUse">
<stop offset="0.1286" stop-color="#1E1644"/>
<stop offset="0.5549" stop-color="#6B2F91"/>
<stop offset="1" stop-color="#F03F77"/>
</linearGradient>
<linearGradient id="paint6_linear_10_1011" x1="96.1431" y1="172.24" x2="66.8769" y2="127.699" gradientUnits="userSpaceOnUse">
<stop stop-color="#1E1644"/>
<stop offset="0.3426" stop-color="#6B2F91"/>
<stop offset="1" stop-color="#F03F77"/>
</linearGradient>
<linearGradient id="paint7_linear_10_1011" x1="-3.46189" y1="172.35" x2="-33.6626" y2="126.387" gradientUnits="userSpaceOnUse">
<stop stop-color="#1E1644"/>
<stop offset="0.3426" stop-color="#6B2F91"/>
<stop offset="1" stop-color="#F03F77"/>
</linearGradient>
<linearGradient id="paint8_linear_10_1011" x1="300.096" y1="167.128" x2="275.967" y2="101.634" gradientUnits="userSpaceOnUse">
<stop stop-color="#1E1644"/>
<stop offset="0.3426" stop-color="#6B2F91"/>
<stop offset="1" stop-color="#F03F77"/>
</linearGradient>
<linearGradient id="paint9_linear_10_1011" x1="340.973" y1="175.785" x2="296.366" y2="103.299" gradientUnits="userSpaceOnUse">
<stop offset="0.2899" stop-color="#1E1644"/>
<stop offset="0.6332" stop-color="#6B2F91"/>
<stop offset="1" stop-color="#F03F77"/>
</linearGradient>
<linearGradient id="paint10_linear_10_1011" x1="249.23" y1="166.614" x2="239.633" y2="118.806" gradientUnits="userSpaceOnUse">
<stop stop-color="#1E1644"/>
<stop offset="0.3426" stop-color="#6B2F91"/>
<stop offset="1" stop-color="#F03F77"/>
</linearGradient>
<linearGradient id="paint11_linear_10_1011" x1="367.429" y1="175.015" x2="330.662" y2="112.548" gradientUnits="userSpaceOnUse">
<stop offset="0.1286" stop-color="#1E1644"/>
<stop offset="0.5549" stop-color="#6B2F91"/>
<stop offset="1" stop-color="#F03F77"/>
</linearGradient>
<linearGradient id="paint12_linear_10_1011" x1="5.37484" y1="123.917" x2="-7.48654" y2="138.207" gradientUnits="userSpaceOnUse">
<stop stop-color="#8D29C1" stop-opacity="0.45"/>
<stop offset="0.1308" stop-color="#71219F" stop-opacity="0.5219"/>
<stop offset="0.3352" stop-color="#4A1671" stop-opacity="0.6344"/>
<stop offset="0.5306" stop-color="#2B0E4C" stop-opacity="0.7418"/>
<stop offset="0.7119" stop-color="#150832" stop-opacity="0.8415"/>
<stop offset="0.8737" stop-color="#080422" stop-opacity="0.9305"/>
<stop offset="1" stop-color="#03031C"/>
</linearGradient>
<linearGradient id="paint13_linear_10_1011" x1="121.503" y1="85.9817" x2="121.503" y2="33.1007" gradientUnits="userSpaceOnUse">
<stop offset="0.0858" stop-color="#8D29C1"/>
<stop offset="0.2383" stop-color="#942BBB"/>
<stop offset="0.4667" stop-color="#A92FAC"/>
<stop offset="0.7413" stop-color="#CA3793"/>
<stop offset="1" stop-color="#F03F77"/>
</linearGradient>
<clipPath id="clip0_10_1011">
<rect width="360" height="204" fill="white"/>
</clipPath>
<clipPath id="clip1_10_1011">
<rect width="161.1" height="45" fill="white" transform="translate(99 40)"/>
</clipPath>
</defs>
</svg>
