<svg width="111" height="29" viewBox="0 0 111 29" fill="none" xmlns="http://www.w3.org/2000/svg">
<g opacity="0.5">
<g clip-path="url(#clip0_4257_37755)">
<mask id="mask0_4257_37755" style="mask-type:alpha" maskUnits="userSpaceOnUse" x="0" y="0" width="30" height="29">
<path d="M29.0739 0H0.243286V28.8307H29.0739V0Z" fill="white"/>
</mask>
<g mask="url(#mask0_4257_37755)">
<path d="M9.12788 20.585C10.1667 19.5484 10.1667 17.8677 9.12788 16.8312C8.0891 15.7946 6.40482 15.7946 5.36602 16.8312C4.32721 17.8677 4.32721 19.5484 5.36602 20.585C6.40482 21.6216 8.0891 21.6216 9.12788 20.585Z" fill="white"/>
<path d="M23.4046 12.4203C24.6752 11.6845 25.1074 10.0601 24.3699 8.79213C23.6325 7.52425 22.0047 7.09292 20.7341 7.82882C19.4634 8.56467 19.0312 10.1891 19.7687 11.457C20.5061 12.7249 22.134 13.1562 23.4046 12.4203Z" fill="white"/>
<path d="M25.0786 15.2958C24.222 15.7915 23.7478 16.6913 23.754 17.6136C23.7268 17.7881 23.5876 18.4234 22.9743 18.8182L21.7889 19.5047C21.0325 19.8964 20.3104 19.5652 20.3104 19.5652L20.3166 19.5768C19.5214 19.1269 18.5147 19.0975 17.6675 19.5885C16.824 20.0771 16.3506 20.9576 16.3428 21.8651C16.3413 21.886 16.2628 22.6617 15.5546 23.1163L14.2821 23.8532C13.8981 24.0254 13.5297 24.0199 13.2685 23.9757C13.1558 23.7353 13.0508 23.3808 13.1154 22.9635L14.3707 18.148H14.3739C14.6009 17.2785 15.3984 16.9666 15.3984 16.9666H15.3968C15.6013 16.9069 15.8018 16.8231 15.9946 16.7114C17.2648 15.9753 17.697 14.351 16.9601 13.0835C16.8388 12.8757 16.6934 12.6903 16.5294 12.5281C16.4579 12.4367 16.0677 11.8991 16.189 11.1761L17.4373 6.3886H17.4381C17.6651 5.5191 18.4627 5.20649 18.4627 5.20649H18.4611C18.6663 5.14675 18.8676 5.0622 19.0604 4.9505C20.3306 4.21438 20.7628 2.59009 20.0259 1.32262C19.2882 0.0551542 17.6605 -0.376127 16.3903 0.359222C15.5344 0.854887 15.0595 1.7539 15.0657 2.67619C15.0392 2.84995 14.8994 3.48834 14.2829 3.88393L13.1045 4.56654C12.3473 4.96058 11.6221 4.62859 11.6221 4.62859L11.6291 4.64023C10.8339 4.19033 9.82722 4.16085 8.9799 4.65186C8.13259 5.14287 7.66312 6.02019 7.65534 6.92774C7.6538 6.94169 7.57837 7.72511 6.86399 8.18125L5.68945 8.8615C4.93154 9.25787 4.20473 8.92436 4.20473 8.92436C3.41107 8.48217 2.41064 8.45581 1.568 8.94449C0.297835 9.67983 -0.134364 11.3041 0.603329 12.5716C1.34102 13.8391 2.96877 14.2703 4.23893 13.535C5.08235 13.0463 5.55575 12.1667 5.56352 11.2591C5.56352 11.2591 5.63426 10.4656 6.3525 10.0064L7.53173 9.32382C8.27407 8.93595 8.98613 9.24933 9.011 9.26096C9.80467 9.7047 10.8059 9.73183 11.6493 9.24315C12.4973 8.75215 12.9708 7.86551 12.9739 6.95332L12.9801 6.96496C12.9801 6.96496 13.0508 6.16913 13.7714 5.71067L14.946 5.0304C15.3557 4.81554 15.756 4.81398 16.0373 4.85897C16.1524 5.10253 16.2628 5.4671 16.1936 5.89761L14.9421 10.696C14.7143 11.5686 13.9207 11.8642 13.9207 11.8642H13.9246C13.7186 11.9247 13.5157 12.0092 13.3221 12.1217C12.052 12.8578 11.6198 14.4821 12.3566 15.7496C12.4764 15.9551 12.6194 16.1382 12.7803 16.298H12.7788C12.7788 16.298 13.2491 16.8611 13.1317 17.6422L11.8747 22.4616H11.8732C11.6617 23.2707 10.9644 23.5832 10.8642 23.6243C10.6558 23.6833 10.4514 23.7686 10.2555 23.8826C8.98536 24.6188 8.55316 26.243 9.29009 27.5105C10.0277 28.778 11.6555 29.2093 12.9257 28.4739C13.7706 27.9845 14.244 27.1017 14.2503 26.1926C14.2627 26.0856 14.3715 25.3689 15.0408 24.9454L16.2161 24.2643C16.9624 23.8725 17.6799 24.1914 17.6993 24.1999C18.4929 24.6436 19.4934 24.67 20.3368 24.1813C21.1849 23.6903 21.6583 22.8036 21.6614 21.8915L21.6684 21.9031C21.6684 21.9031 21.7391 21.1049 22.4628 20.6465L23.6312 19.9701C24.2818 19.6272 24.9106 19.8243 25.0754 19.8879C25.8746 20.3509 26.8921 20.3851 27.7479 19.8894C29.0181 19.1533 29.4503 17.529 28.7134 16.2616C27.9765 14.9941 26.348 14.5628 25.0778 15.2982L25.0786 15.2958Z" fill="white"/>
</g>
</g>
<path fill-rule="evenodd" clip-rule="evenodd" d="M74.0792 13.6072V24.2226H75.7077H77.3363V13.6072V2.9917H75.7077H74.0792V13.6072ZM81.1964 13.6072V24.2226H82.8249H84.4535V13.6072V2.9917H82.8249H81.1964V13.6072ZM89.4291 3.15238C88.5116 3.4852 87.9823 4.38257 88.1182 5.37475C88.2765 6.52931 89.0275 7.1561 90.2437 7.14862C91.3524 7.14174 92.1407 6.4433 92.2628 5.35955C92.4065 4.08521 91.4548 3.01004 90.1834 3.01004C89.9844 3.01004 89.6449 3.07409 89.4291 3.15238ZM37.1663 5.34399V6.85187H42.4741C47.1895 6.85187 47.7818 6.87274 47.7818 7.03897C47.7818 7.14187 45.6543 10.1954 43.0539 13.8244C40.4536 17.4536 37.9816 20.908 37.5603 21.501L36.7944 22.5792L36.8297 23.3708L36.8648 24.1623L45.0375 24.1933L53.2102 24.2243V22.7156V21.2069H47.5868C42.2615 21.2069 41.9663 21.1955 42.0194 20.9929C42.0502 20.8752 42.808 19.7488 43.7035 18.4898C44.599 17.2308 47.0229 13.8196 49.0899 10.9094L52.8483 5.61819V4.72709V3.83611H45.0073H37.1663V5.34399ZM60.8294 9.38161C57.0924 10.3915 54.8857 13.8046 55.3739 17.8198C55.593 19.6213 56.2235 21.0585 57.3032 22.2172C58.8858 23.9156 60.7983 24.7052 63.3301 24.7052C66.1155 24.7052 68.4265 23.6521 69.7373 21.7857C70.0714 21.3099 70.3258 20.8638 70.3028 20.7945C70.2626 20.6739 68.0016 19.7604 67.7418 19.7597C67.673 19.7594 67.4501 19.9762 67.2464 20.2412C66.3333 21.4293 65.3086 21.9443 63.705 22.0209C62.749 22.0665 62.4302 22.0321 61.7821 21.8132C60.1525 21.2627 59.1652 20.1259 58.7149 18.2816L58.634 17.9499H64.7175H70.801L70.877 17.4975C70.9787 16.8917 70.757 15.0187 70.4864 14.1985C69.7466 11.9561 68.1182 10.3224 65.7889 9.48596C64.7397 9.10911 62.0474 9.05241 60.8294 9.38161ZM100.859 9.33396C98.2056 10.0308 96.2272 12.0109 95.5428 14.655C95.2339 15.8479 95.2085 17.7807 95.4858 18.9752C96.1345 21.769 98.3421 23.9592 101.078 24.5233C104.387 25.2054 107.798 23.9417 109.424 21.4314C109.872 20.7404 110.357 19.4459 110.22 19.3086C110.139 19.2281 108.011 18.9265 107.472 18.9193C107.238 18.9161 107.126 18.9902 107.069 19.1863C106.777 20.1914 105.502 21.3536 104.252 21.7529C103.426 22.0167 101.998 21.9451 101.221 21.601C98.9704 20.6039 97.8808 17.5513 98.8416 14.9341C99.2977 13.6919 99.9701 12.9249 101.148 12.3038C101.698 12.0138 101.893 11.9788 102.97 11.9788C104.016 11.9787 104.265 12.02 104.84 12.2906C105.694 12.6922 106.544 13.5244 106.906 14.3124C107.228 15.0153 107.17 14.9995 108.711 14.808C110.322 14.6079 110.273 14.6288 110.188 14.1787C110.057 13.4903 109.481 12.3582 108.948 11.7434C107.391 9.94809 105.502 9.13697 102.912 9.15181C102.114 9.15639 101.24 9.23384 100.859 9.33396ZM88.5549 16.9245V24.2226H90.1834H91.8119V16.9245V9.62637H90.1834H88.5549V16.9245ZM63.8902 11.8087C64.8077 11.9783 65.4036 12.2882 66.1524 12.9851C66.7684 13.5583 67.4443 14.7515 67.4444 15.2658L67.4446 15.5373H63.0393H58.634L58.7114 15.2055C59.0094 13.9303 60.0399 12.6211 61.1228 12.1421C62.1047 11.7078 62.8552 11.6174 63.8902 11.8087Z" fill="white"/>
</g>
<defs>
<clipPath id="clip0_4257_37755">
<rect width="28.8307" height="28.8307" fill="white" transform="translate(0.243286)"/>
</clipPath>
</defs>
</svg>
