<svg width="107" height="30" viewBox="0 0 107 30" fill="none" xmlns="http://www.w3.org/2000/svg">
<g opacity="0.5">
<path d="M24.8226 22.962C23.5169 24.3688 21.9229 25.4773 20.1496 26.2116C16.0669 27.8692 12.3672 26.9124 11.0415 26.4872C9.88737 26.1168 7.78654 25.4152 5.95193 23.4334C4.34671 21.699 3.77433 19.8824 3.51592 19.0297C2.54739 15.8374 3.14712 13.0623 3.52459 11.7649C3.52459 11.7939 3.50578 12.017 3.48931 12.3827C3.43374 13.6457 3.34289 16.3166 4.63801 18.9178C5.06551 19.7767 6.0067 21.3568 7.94863 22.7663C9.37086 23.8725 11.0311 24.6324 12.7979 24.9857C14.5647 25.339 16.3896 25.2762 18.1278 24.8021C19.412 24.4811 21.6444 23.7263 23.6481 21.8658C24.4645 21.1022 25.1755 20.2333 25.7623 19.2818C26.1678 18.6257 26.7426 17.6806 27.0934 16.3064C27.311 15.4529 27.5898 14.3042 27.2499 12.9394C27.1427 12.508 26.9438 11.7485 26.3104 11.0602C25.9658 10.6867 25.6299 10.4823 25.2924 10.2772C24.5501 9.82614 23.9136 9.64291 23.1 9.41585C22.3545 9.20815 21.5959 9.05116 20.8292 8.94605L20.3344 8.89436C20.7929 9.6595 21.1439 10.4842 21.3774 11.3452C21.6353 12.2909 21.7463 13.2707 21.7062 14.2502C21.678 14.868 21.6475 15.5461 21.3468 16.3573C20.8825 17.6101 20.076 18.3634 19.5702 18.8246C18.618 19.6802 17.4777 20.2993 16.2415 20.6318C15.6253 20.7923 14.9824 20.9176 14.9824 20.9176C15.3226 20.9216 15.6626 20.903 16.0003 20.862C16.3527 20.8221 16.6057 20.7939 16.94 20.7257C17.3679 20.6326 17.789 20.511 18.2006 20.3616C18.7386 20.162 20.1762 19.6139 21.2184 18.4691C22.0218 17.5858 22.3514 16.7003 22.6036 15.9932C22.6036 15.9932 23.4962 13.4875 22.5253 10.4337C22.9852 11.0886 23.3607 11.7989 23.6426 12.5479C23.928 13.4056 24.0605 14.3067 24.0341 15.2102C23.9796 16.4736 23.6311 17.707 23.0162 18.812C22.3572 19.9651 21.4473 20.9552 20.3539 21.7092C17.9305 23.3942 15.4162 23.3739 14.7945 23.3535C13.9716 23.3261 11.6585 23.2165 9.55925 21.5032C6.70675 19.1746 6.53058 15.7786 6.51177 15.2321C6.48983 14.6135 6.4264 10.4283 9.85762 8.10666C12.7093 6.17727 15.9354 7.02766 16.4208 7.16701L15.4585 9.32107L15.7569 9.61709L17.048 7.15373C16.916 7.97432 16.7834 8.79546 16.6503 9.61709L17.048 9.41978L17.5797 7.32756C17.8522 7.41915 19.2969 7.87567 20.5286 7.15373C21.1957 6.71387 21.7384 6.1099 22.1048 5.39977C22.1048 5.3943 22.1831 5.24782 22.2849 5.05051C22.335 4.95499 22.4031 4.82032 22.4838 4.65903C22.1494 4.55017 21.8832 4.47032 21.696 4.41549C21.5966 4.38654 21.4807 4.35366 21.263 4.28942L20.8136 4.15635C20.7478 4.11873 20.6452 4.05843 20.5215 3.98092C19.3728 3.26366 19.2726 2.8667 18.441 2.32954C17.8864 1.98115 17.284 1.71549 16.6526 1.54104C16.1488 1.38246 15.6306 1.27409 15.1054 1.21766C15.1054 1.21766 14.8298 1.1832 14.5917 1.16207C14.1893 1.12526 13.3835 1.12996 12.3468 1.20826C12.2095 0.80697 11.9339 0.467622 11.5693 0.250889C11.2047 0.0341614 10.7749 -0.0458072 10.3567 0.0252796C9.93863 0.0963664 9.55938 0.313874 9.28689 0.638906C9.01441 0.963945 8.86646 1.37533 8.86941 1.79945C7.33648 2.44166 5.92513 3.34215 4.69677 4.46172C0.495856 8.30163 0.0722427 13.356 0.0276114 14.0161C-0.0326818 14.9024 -0.262102 19.5394 3.00777 23.6706C7.49992 29.3436 15.0365 29.5684 18.5381 28.631C19.6841 28.3096 20.7854 27.8464 21.8166 27.2522C23.2982 26.3325 24.5817 25.127 25.5923 23.7059C26.017 23.0723 26.3881 22.4044 26.7018 21.7092C26.9711 21.1229 27.2064 20.5216 27.4066 19.9082C27.5936 19.3604 27.7448 18.8009 27.8591 18.2334C27.9387 17.8557 27.9968 17.4737 28.033 17.0894C28.033 17.0894 26.9242 20.7069 24.8226 22.962ZM16.8202 3.57216C16.9082 3.48408 17.0276 3.43448 17.1522 3.43435C17.2101 3.43368 17.2677 3.44443 17.3214 3.46607C17.3752 3.48771 17.4241 3.51979 17.4654 3.56042C17.5061 3.60081 17.5384 3.64887 17.5603 3.70186C17.5822 3.75484 17.5933 3.81164 17.593 3.86893C17.5928 3.93033 17.5805 3.99106 17.5568 4.04767C17.533 4.10422 17.4982 4.15555 17.4544 4.19858C17.3702 4.28451 17.2556 4.33374 17.1353 4.33583C17.015 4.33786 16.8987 4.2925 16.8116 4.20958C16.7704 4.16858 16.7378 4.11977 16.7159 4.06593C16.694 4.01215 16.6831 3.95443 16.6839 3.89634C16.6848 3.77457 16.7338 3.65803 16.8202 3.57216Z" fill="white"/>
<path d="M36.939 10.9887V12.5828H30.5945V10.9887H36.939ZM32.4437 8.05553H34.3247V19.7244C34.3247 20.2558 34.4018 20.6543 34.5559 20.92C34.7152 21.1804 34.9172 21.3557 35.1616 21.446C35.4114 21.531 35.6744 21.5736 35.9507 21.5736C36.1579 21.5736 36.328 21.5629 36.4608 21.5417C36.5936 21.5151 36.6999 21.4939 36.7796 21.4779L37.1622 23.1677C37.0346 23.2155 36.8566 23.2633 36.6282 23.3111C36.3997 23.3643 36.1101 23.3909 35.7594 23.3909C35.228 23.3909 34.7073 23.2766 34.1971 23.0481C33.6924 22.8196 33.2725 22.4716 32.9378 22.004C32.6083 21.5364 32.4437 20.9466 32.4437 20.2345V8.05553ZM45.0929 10.9887V12.5828H38.7484V10.9887H45.0929ZM40.5975 8.05553H42.4785V19.7244C42.4785 20.2558 42.5556 20.6543 42.7097 20.92C42.8691 21.1804 43.071 21.3557 43.3155 21.446C43.5652 21.531 43.8282 21.5736 44.1045 21.5736C44.3117 21.5736 44.4818 21.5629 44.6147 21.5417C44.7475 21.5151 44.8538 21.4939 44.9335 21.4779L45.3161 23.1677C45.1885 23.2155 45.0105 23.2633 44.782 23.3111C44.5536 23.3643 44.2639 23.3909 43.9133 23.3909C43.3819 23.3909 42.8611 23.2766 42.351 23.0481C41.8462 22.8196 41.4264 22.4716 41.0917 22.004C40.7622 21.5364 40.5975 20.9466 40.5975 20.2345V8.05553ZM52.924 23.4865C51.7443 23.4865 50.7267 23.2261 49.8712 22.7054C49.0211 22.1793 48.3648 21.446 47.9025 20.5055C47.4455 19.5597 47.2171 18.4598 47.2171 17.2057C47.2171 15.9517 47.4455 14.8464 47.9025 13.89C48.3648 12.9282 49.0078 12.1789 49.8314 11.6423C50.6603 11.1002 51.6274 10.8293 52.7326 10.8293C53.3703 10.8293 54 10.9356 54.6217 11.1481C55.2434 11.3606 55.8093 11.7061 56.3194 12.1843C56.8295 12.6572 57.2358 13.2842 57.5388 14.0653C57.8418 14.8464 57.9931 15.8082 57.9931 16.9506V17.7477H48.5561V16.1218H56.0803C56.0803 15.4309 55.9421 14.8145 55.6658 14.2726C55.3948 13.7306 55.0069 13.3028 54.5021 12.9893C54.0026 12.6758 53.4128 12.519 52.7326 12.519C51.9834 12.519 51.3352 12.705 50.7879 13.077C50.2458 13.4436 49.8287 13.9218 49.5365 14.5117C49.2442 15.1015 49.0981 15.7338 49.0981 16.4087V17.4927C49.0981 18.4172 49.2575 19.201 49.5763 19.844C49.9005 20.4816 50.3495 20.9678 50.9233 21.3026C51.4972 21.632 52.1641 21.7968 52.924 21.7968C53.4181 21.7968 53.8645 21.7277 54.263 21.5895C54.6668 21.446 55.0149 21.2335 55.3071 20.9518C55.5994 20.6649 55.8252 20.3089 55.9846 19.8838L57.8019 20.3939C57.6107 21.0103 57.2893 21.5523 56.8375 22.0199C56.3858 22.4822 55.8279 22.8436 55.1637 23.1039C54.4994 23.359 53.7529 23.4865 52.924 23.4865ZM60.8543 23.2315V10.9887H62.6719V12.8379H62.7992C63.0229 12.2321 63.4268 11.7406 64.0107 11.3633C64.5952 10.986 65.2542 10.7974 65.9875 10.7974C66.1258 10.7974 66.2985 10.8 66.5056 10.8054C66.7128 10.8107 66.8695 10.8187 66.9759 10.8293V12.7422C66.9126 12.7262 66.7663 12.7023 66.5376 12.6705C66.3145 12.6333 66.0778 12.6147 65.8283 12.6147C65.2333 12.6147 64.7016 12.7396 64.2344 12.9893C63.7716 13.2337 63.4052 13.5738 63.1342 14.0096C62.8686 14.4399 62.7359 14.9314 62.7359 15.4841V23.2315H60.8543ZM78.3879 10.9887C78.292 10.181 77.9041 9.55398 77.2243 9.10767C76.5438 8.66129 75.7097 8.43811 74.7214 8.43811C73.9985 8.43811 73.3666 8.55502 72.8245 8.78884C72.2879 9.0226 71.868 9.34413 71.565 9.75326C71.2675 10.1624 71.1188 10.6274 71.1188 11.1481C71.1188 11.5838 71.222 11.9585 71.4298 12.2719C71.6418 12.5801 71.9129 12.8379 72.2424 13.0451C72.5718 13.247 72.9173 13.4144 73.2787 13.5473C73.6401 13.6747 73.9721 13.7784 74.2751 13.8581L75.9329 14.3044C76.3582 14.416 76.8309 14.5701 77.3515 14.7667C77.8777 14.9633 78.3799 15.2317 78.8581 15.5717C79.3418 15.9065 79.7401 16.3369 80.0536 16.863C80.3671 17.389 80.5239 18.0347 80.5239 18.7998C80.5239 19.6819 80.2927 20.479 79.8305 21.191C79.3738 21.903 78.7038 22.4689 77.8218 22.8887C76.9452 23.3085 75.88 23.5184 74.6255 23.5184C73.457 23.5184 72.4446 23.3298 71.589 22.9525C70.7389 22.5752 70.0695 22.0492 69.5802 21.3743C69.0971 20.6995 68.823 19.9157 68.7596 19.023H70.7997C70.8532 19.6394 71.0604 20.1495 71.4218 20.5533C71.7881 20.9518 72.2504 21.2495 72.8085 21.446C73.3715 21.6373 73.9776 21.733 74.6255 21.733C75.3803 21.733 76.0576 21.6108 76.6582 21.3663C77.2587 21.1166 77.7345 20.7712 78.0848 20.3302C78.4358 19.8838 78.611 19.3631 78.611 18.7679C78.611 18.226 78.4598 17.7849 78.1567 17.4448C77.8537 17.1047 77.4554 16.8284 76.9612 16.6159C76.467 16.4033 75.9329 16.2174 75.3588 16.0579L73.3506 15.4841C72.0752 15.1174 71.0653 14.594 70.3215 13.9139C69.5778 13.2337 69.2059 12.3437 69.2059 11.2438C69.2059 10.3298 69.453 9.53271 69.9472 8.85258C70.4463 8.1671 71.1163 7.63577 71.9553 7.25849C72.8005 6.87592 73.7434 6.68457 74.7853 6.68457C75.837 6.68457 76.7725 6.87321 77.5906 7.2505C78.4094 7.62244 79.0572 8.13255 79.5355 8.78085C80.0192 9.42914 80.2743 10.1651 80.3007 10.9887H78.3879ZM88.6517 23.4865C87.4721 23.4865 86.4548 23.2261 85.5992 22.7054C84.7491 22.1793 84.0926 21.446 83.6304 20.5055C83.1737 19.5597 82.945 18.4598 82.945 17.2057C82.945 15.9517 83.1737 14.8464 83.6304 13.89C84.0926 12.9282 84.7356 12.1789 85.5592 11.6423C86.3884 11.1002 87.3553 10.8293 88.4605 10.8293C89.0985 10.8293 89.728 10.9356 90.3494 11.1481C90.9714 11.3606 91.5375 11.7061 92.0471 12.1843C92.5573 12.6572 92.9642 13.2842 93.2666 14.0653C93.5696 14.8464 93.7215 15.8082 93.7215 16.9506V17.7477H84.2838V16.1218H91.808C91.808 15.4309 91.6703 14.8145 91.3937 14.2726C91.1226 13.7306 90.7348 13.3028 90.2301 12.9893C89.7304 12.6758 89.1409 12.519 88.4605 12.519C87.7112 12.519 87.0633 12.705 86.5157 13.077C85.9735 13.4436 85.5568 13.9218 85.2642 14.5117C84.9722 15.1015 84.8259 15.7338 84.8259 16.4087V17.4927C84.8259 18.4172 84.9858 19.201 85.3042 19.844C85.6287 20.4816 86.0774 20.9678 86.6515 21.3026C87.225 21.632 87.8919 21.7968 88.6517 21.7968C89.1459 21.7968 89.5927 21.7277 89.991 21.5895C90.3949 21.446 90.7428 21.2335 91.0354 20.9518C91.3273 20.6649 91.5529 20.3089 91.7127 19.8838L93.5297 20.3939C93.3385 21.0103 93.0171 21.5523 92.5653 22.0199C92.1135 22.4822 91.556 22.8436 90.8915 23.1039C90.2277 23.359 89.4808 23.4865 88.6517 23.4865ZM101.556 23.4865C100.408 23.4865 99.4201 23.2155 98.5909 22.6735C97.7623 22.1315 97.1249 21.3849 96.678 20.4338C96.2318 19.4827 96.0087 18.396 96.0087 17.1738C96.0087 15.9304 96.2373 14.8332 96.694 13.882C97.1563 12.9255 97.7992 12.1789 98.6229 11.6423C99.4521 11.1002 100.419 10.8293 101.524 10.8293C102.385 10.8293 103.161 10.9887 103.852 11.3075C104.543 11.6263 105.108 12.0727 105.55 12.6466C105.99 13.2204 106.264 13.89 106.37 14.6551H104.489C104.346 14.0972 104.027 13.603 103.533 13.1726C103.044 12.7369 102.385 12.519 101.556 12.519C100.823 12.519 100.18 12.7103 99.6272 13.0929C99.0802 13.4702 98.6524 14.0042 98.3438 14.695C98.0414 15.3805 97.8896 16.1855 97.8896 17.1101C97.8896 18.0559 98.0383 18.8795 98.3364 19.5809C98.6388 20.2823 99.0642 20.827 99.6113 21.2149C100.164 21.6028 100.812 21.7968 101.556 21.7968C102.045 21.7968 102.489 21.7118 102.887 21.5417C103.286 21.3717 103.623 21.1272 103.9 20.8084C104.176 20.4896 104.373 20.107 104.489 19.6607H106.37C106.264 20.3833 106.001 21.0342 105.582 21.6134C105.167 22.1873 104.617 22.6443 103.931 22.9844C103.251 23.3191 102.46 23.4865 101.556 23.4865Z" fill="white"/>
</g>
</svg>
