<svg width="24" height="24" viewBox="0 0 24 24" fill="none" xmlns="http://www.w3.org/2000/svg">
<path opacity="0.6" d="M12 0C5.38411 0 0 5.38094 0 11.9984C0 16.7537 2.7837 20.8738 6.80651 22.814V22.8214H6.82362C8.39267 23.574 10.1475 23.9968 12 23.9968C18.6159 23.9968 24 18.6134 24 11.9984C24 5.38339 18.6159 0 12 0ZM12 0.984796C18.0733 0.984796 23.0151 5.92588 23.0151 11.9984C23.0151 13.7432 22.6045 15.3926 21.8811 16.8613C20.2949 16.0915 18.6843 15.5197 17.0591 15.1336V5.94543C17.0591 5.62775 16.8049 5.36872 16.4945 5.36872H14.4758H9.39226H7.37352C7.06069 5.36872 6.80896 5.62775 6.80896 5.94543V15.1751C5.23259 15.5637 3.66599 16.1233 2.12383 16.8613C1.39796 15.3926 0.987368 13.7432 0.987368 11.9959C0.984924 5.92588 5.92668 0.984796 12 0.984796ZM2.75682 17.9756C4.06191 17.328 5.41833 16.8319 6.80651 16.4898V21.7071C5.16171 20.8249 3.76863 19.5346 2.75682 17.9756ZM9.39226 22.6967V10.4027C9.39226 8.9829 10.558 7.80017 11.9511 7.80017C13.3442 7.80017 14.4758 8.95113 14.4758 10.3733C14.4758 10.3831 14.4733 10.3929 14.4733 10.4027H14.4758V14.6791C13.288 14.5447 12.0953 14.4958 10.9051 14.5593L9.92261 15.9816C11.4501 15.852 12.9361 15.8643 14.4024 16.028C14.4147 16.0304 14.4293 16.0304 14.4415 16.0304C14.4513 16.0304 14.4611 16.0329 14.4758 16.0353C14.7299 16.0646 15.6635 16.1844 16.514 16.397L14.4758 17.0885V22.7261C13.679 22.9093 12.853 23.0095 12.0024 23.0095C11.1006 23.012 10.2281 22.8996 9.39226 22.6967ZM17.0591 21.7755V16.5118C18.4473 16.8613 19.8232 17.372 21.2016 18.0416C20.1654 19.6128 18.7381 20.9031 17.0591 21.7755Z" fill="#FEFEFE"/>
</svg>
